<?xml version="1.0" standalone="no"?>
<!DOCTYPE svg PUBLIC "-//W3C//DTD SVG 20010904//EN"
 "http://www.w3.org/TR/2001/REC-SVG-20010904/DTD/svg10.dtd">
<svg version="1.0" xmlns="http://www.w3.org/2000/svg"
 width="216.000000pt" height="200.000000pt" viewBox="0 0 216.000000 200.000000"
 preserveAspectRatio="xMidYMid meet">

<g transform="translate(0.000000,200.000000) scale(0.100000,-0.100000)"
fill="#000000" stroke="none">
<path d="M449 1984 c-19 -23 -1 -45 50 -60 53 -15 77 -37 92 -81 18 -57 4 -96
-66 -179 -86 -101 -104 -167 -66 -249 22 -48 44 -69 95 -90 72 -30 125 -19
112 23 -5 13 -19 22 -46 26 -76 12 -125 86 -106 159 3 13 35 57 71 97 96 107
108 186 44 283 -44 67 -149 108 -180 71z"/>
<path d="M979 1984 c-19 -24 0 -45 54 -61 58 -17 87 -57 87 -121 0 -53 -10
-72 -73 -142 -66 -72 -81 -109 -74 -184 8 -84 58 -141 143 -165 50 -14 76 -4
72 27 -2 21 -13 28 -58 43 -30 10 -56 19 -57 19 -11 1 -33 66 -33 95 0 47 12
68 72 132 59 63 78 106 78 172 0 87 -37 146 -115 182 -49 23 -79 24 -96 3z"/>
<path d="M1513 1993 c-7 -2 -13 -16 -13 -29 0 -25 3 -28 54 -39 16 -3 44 -21
63 -40 28 -28 33 -40 33 -82 0 -55 -11 -75 -81 -148 -26 -27 -53 -63 -59 -80
-18 -49 -14 -120 10 -170 25 -52 49 -71 116 -91 55 -16 87 -5 82 29 -2 16 -15
24 -53 33 -70 18 -95 50 -95 119 0 52 2 56 65 127 85 96 105 170 70 255 -21
50 -41 71 -97 99 -46 23 -70 28 -95 17z"/>
<path d="M227 1145 c-19 -18 -32 -178 -22 -266 11 -97 50 -239 83 -305 64
-126 166 -236 289 -310 l57 -34 -298 0 c-186 0 -305 -4 -317 -10 -36 -20 -23
-47 34 -68 287 -107 700 -161 1137 -149 113 4 255 11 315 17 286 29 644 120
654 166 8 41 -18 44 -333 44 l-300 0 59 35 c79 48 156 115 207 181 l43 54 63
0 c34 0 79 7 98 15 126 53 191 184 154 315 -19 71 -90 140 -156 154 -31 7 -32
8 -39 82 -5 57 -11 76 -25 84 -12 6 -322 10 -854 10 -723 0 -837 -2 -849 -15z
m1655 -136 c8 -100 0 -121 -48 -136 -63 -19 -195 -16 -276 7 -48 13 -103 20
-163 20 -60 0 -115 -7 -163 -20 -44 -12 -102 -20 -152 -20 -50 0 -108 8 -152
20 -97 27 -229 27 -323 0 -79 -22 -210 -27 -280 -9 -51 13 -56 27 -48 136 l6
73 797 0 797 0 5 -71z m135 -109 c42 -25 73 -87 73 -145 0 -107 -76 -185 -179
-185 l-39 0 25 60 c26 65 62 217 63 263 0 32 14 34 57 7z m-447 -95 c49 -13
91 -16 170 -13 58 3 112 8 121 12 15 7 15 2 4 -46 -7 -29 -20 -73 -29 -98 -19
-50 -103 -190 -115 -190 -4 0 -50 9 -102 20 -126 27 -288 27 -389 0 -99 -26
-200 -25 -297 1 -67 19 -96 21 -213 17 -75 -3 -168 -13 -209 -23 l-74 -17 -23
28 c-39 48 -103 185 -118 252 l-15 64 22 -7 c12 -4 67 -9 122 -12 80 -4 116
-1 182 16 106 27 225 28 318 1 86 -25 213 -26 299 -4 127 34 215 34 346 -1z
m-638 -386 c100 -25 209 -24 311 2 54 14 112 21 170 20 87 0 193 -16 211 -32
12 -11 -100 -81 -187 -117 -121 -51 -217 -65 -396 -59 -120 4 -173 10 -231 27
-89 26 -221 89 -269 129 l-35 28 85 12 c160 22 218 20 341 -10z m967 -263 c-2
-2 -74 -16 -159 -31 -394 -68 -841 -73 -1230 -14 -317 47 -325 47 569 48 453
1 822 -1 820 -3z"/>
</g>
</svg>
